<svg width="50" height="50" viewBox="0 0 50 50" fill="none" xmlns="http://www.w3.org/2000/svg">
<path fill-rule="evenodd" clip-rule="evenodd" d="M33.325 6.31626C29.296 4.52103 24.7946 4.0763 20.4922 5.04837C16.1898 6.02045 12.3169 8.35725 9.45103 11.7103C6.5852 15.0633 4.88002 19.2529 4.5898 23.6542C4.29957 28.0555 5.43986 32.4327 7.8406 36.133C10.2413 39.8333 13.7739 42.6584 17.9114 44.187C22.0489 45.7156 26.5697 45.8658 30.7996 44.6151C35.0294 43.3645 38.7417 40.7801 41.3827 37.2472C44.0237 33.7144 45.452 29.4226 45.4545 25.0117V22.9221C45.4545 21.6669 46.4721 20.6494 47.7273 20.6494C48.9825 20.6494 50 21.6669 50 22.9221V25.013C49.9969 30.4041 48.2512 35.651 45.0233 39.9689C41.7954 44.2867 37.2582 47.4455 32.0884 48.974C26.9186 50.5026 21.3931 50.319 16.3362 48.4508C11.2792 46.5825 6.96163 43.1295 4.0274 38.607C1.09317 34.0844 -0.300522 28.7345 0.054192 23.3551C0.408906 17.9757 2.49302 12.8551 5.9957 8.75699C9.49838 4.65886 14.232 1.80276 19.4905 0.614674C24.749 -0.573416 30.2507 -0.0298482 35.175 2.16431C36.3215 2.67517 36.8368 4.01875 36.326 5.16528C35.8151 6.31181 34.4715 6.82712 33.325 6.31626Z" fill="#55A43D"/>
<path fill-rule="evenodd" clip-rule="evenodd" d="M49.3335 5.22336C50.2215 6.11047 50.2222 7.54948 49.3351 8.43748L26.6079 31.1875C26.1817 31.614 25.6035 31.8538 25.0006 31.8539C24.3976 31.8541 23.8193 31.6146 23.3929 31.1883L16.5748 24.3701C15.6872 23.4825 15.6872 22.0435 16.5748 21.156C17.4623 20.2684 18.9013 20.2684 19.7889 21.156L24.9992 26.3663L46.1194 5.22496C47.0065 4.33696 48.4455 4.33624 49.3335 5.22336Z" fill="#55A43D"/>
</svg>
