<svg width="22" height="11" viewBox="0 0 22 11" fill="none" xmlns="http://www.w3.org/2000/svg">
<path d="M16.8536 0.646447C16.6583 0.451184 16.3417 0.451184 16.1464 0.646447C15.9512 0.841709 15.9512 1.15829 16.1464 1.35355L16.8536 0.646447ZM21 5.5L21.3536 5.85355C21.5488 5.65829 21.5488 5.34171 21.3536 5.14645L21 5.5ZM16.1464 9.64645C15.9512 9.84171 15.9512 10.1583 16.1464 10.3536C16.3417 10.5488 16.6583 10.5488 16.8536 10.3536L16.1464 9.64645ZM1 5C0.723858 5 0.5 5.22386 0.5 5.5C0.5 5.77614 0.723858 6 1 6V5ZM16.1464 1.35355L20.6464 5.85355L21.3536 5.14645L16.8536 0.646447L16.1464 1.35355ZM20.6464 5.14645L16.1464 9.64645L16.8536 10.3536L21.3536 5.85355L20.6464 5.14645ZM1 6H21V5H1V6Z" fill="black"/>
</svg>
