<svg width="14" height="7" viewBox="0 0 14 7" fill="none" xmlns="http://www.w3.org/2000/svg">
<path d="M10.6536 0.646447C10.4583 0.451184 10.1417 0.451184 9.94645 0.646447C9.75118 0.841709 9.75118 1.15829 9.94645 1.35355L10.6536 0.646447ZM13 3.7L13.3536 4.05355C13.5488 3.85829 13.5488 3.54171 13.3536 3.34645L13 3.7ZM9.94645 6.04645C9.75118 6.24171 9.75118 6.55829 9.94645 6.75355C10.1417 6.94882 10.4583 6.94882 10.6536 6.75355L9.94645 6.04645ZM1 3.2C0.723858 3.2 0.5 3.42386 0.5 3.7C0.5 3.97614 0.723858 4.2 1 4.2V3.2ZM9.94645 1.35355L12.6464 4.05355L13.3536 3.34645L10.6536 0.646447L9.94645 1.35355ZM12.6464 3.34645L9.94645 6.04645L10.6536 6.75355L13.3536 4.05355L12.6464 3.34645ZM1 4.2H13V3.2H1V4.2Z" fill="#55A43D"/>
</svg>
