<svg width="61" height="61" viewBox="0 0 61 61" fill="none" xmlns="http://www.w3.org/2000/svg">
<path d="M30.5 61C47.3447 61 61 47.3447 61 30.5C61 13.6553 47.3447 0 30.5 0C13.6553 0 0 13.6553 0 30.5C0 47.3447 13.6553 61 30.5 61Z" fill="#39579F"/>
<path d="M37.0579 16.3175C27.2979 16.3175 26.5354 17.2325 26.5354 25.925H23.4854V30.9575H26.5354V45.5975H32.4829V30.9575H36.4479L37.0579 25.925H32.6354C32.6354 25.925 32.6354 24.705 32.6354 23.3325C32.6354 21.96 33.0929 21.35 34.9229 21.35C36.7529 21.35 37.2104 21.35 37.2104 21.35L37.0579 16.3175Z" fill="white"/>
</svg>
