<svg width="62" height="61" viewBox="0 0 62 61" fill="none" xmlns="http://www.w3.org/2000/svg">
<path d="M30.75 61C47.5947 61 61.25 47.3447 61.25 30.5C61.25 13.6553 47.5947 0 30.75 0C13.9053 0 0.25 13.6553 0.25 30.5C0.25 47.3447 13.9053 61 30.75 61Z" fill="url(#paint0_linear)"/>
<path d="M43.5605 37.3625C43.5605 40.7175 40.8155 43.4625 37.613 43.4625H24.0405C20.6855 43.4625 18.093 40.7175 18.093 37.3625V23.79C18.093 20.435 20.838 17.69 24.0405 17.69H37.613C40.968 17.69 43.5605 20.435 43.5605 23.79V37.3625ZM37.308 14.7925H24.0405C19.008 14.7925 15.043 18.91 15.043 23.9425V37.21C15.043 42.2425 19.1605 46.36 24.0405 46.36H34.4105H37.308C42.3405 46.36 46.3055 42.2425 46.3055 37.21V23.9425C46.458 18.91 42.3405 14.7925 37.308 14.7925ZM30.7505 35.8375C27.853 35.8375 25.413 33.3975 25.413 30.5C25.413 27.6025 27.7005 25.1625 30.7505 25.1625C33.8005 25.1625 36.088 27.6025 36.088 30.5C36.088 33.55 33.648 35.8375 30.7505 35.8375ZM30.7505 22.4175C26.328 22.4175 22.668 26.0775 22.668 30.6525C22.668 35.2275 26.328 38.8875 30.7505 38.8875C35.173 38.8875 38.833 35.2275 38.833 30.6525C38.833 26.0775 35.173 22.4175 30.7505 22.4175ZM39.138 20.13C38.0705 20.13 37.308 21.045 37.308 21.96C37.308 22.875 38.223 23.79 39.138 23.79C40.2055 23.79 40.968 22.875 40.968 21.96C40.968 21.045 40.2055 20.13 39.138 20.13Z" fill="white"/>
<defs>
<linearGradient id="paint0_linear" x1="10" y1="7" x2="45.5" y2="55.5" gradientUnits="userSpaceOnUse">
<stop stop-color="#5C4FC5"/>
<stop offset="0.513812" stop-color="#F9832B" stop-opacity="0.77"/>
<stop offset="1" stop-color="#F15941"/>
</linearGradient>
</defs>
</svg>
