<svg width="37" height="35" viewBox="0 0 37 35" fill="none" xmlns="http://www.w3.org/2000/svg">
<path fill-rule="evenodd" clip-rule="evenodd" d="M10.7917 31.9565C10.7917 30.2757 12.1721 28.913 13.875 28.913C15.5779 28.913 16.9583 30.2757 16.9583 31.9565C16.9583 33.6374 15.5779 35 13.875 35C12.1721 35 10.7917 33.6374 10.7917 31.9565Z" fill="black"/>
<path fill-rule="evenodd" clip-rule="evenodd" d="M27.75 31.9565C27.75 30.2757 29.1304 28.913 30.8333 28.913C32.5362 28.913 33.9167 30.2757 33.9167 31.9565C33.9167 33.6374 32.5362 35 30.8333 35C29.1304 35 27.75 33.6374 27.75 31.9565Z" fill="black"/>
<path fill-rule="evenodd" clip-rule="evenodd" d="M0 1.52174C0 0.681306 0.690227 0 1.54167 0H7.70833C8.44313 0 9.07581 0.511891 9.22002 1.22309L10.5148 7.6087H35.4583C35.9178 7.6087 36.3533 7.81098 36.6462 8.16041C36.939 8.50984 37.0588 8.97001 36.9727 9.4155L34.5038 22.1943C34.2924 23.2452 33.7131 24.1892 32.8676 24.8611C32.0263 25.5296 30.9746 25.8863 29.895 25.8696H14.9367C13.8571 25.8863 12.8054 25.5296 11.9641 24.8611C11.1189 24.1895 10.5398 23.246 10.3281 22.1956C10.3282 22.196 10.328 22.1951 10.3281 22.1956L7.75272 9.49444C7.74227 9.45243 7.73359 9.40973 7.72676 9.36642L6.44465 3.04348H1.54167C0.690227 3.04348 0 2.36217 0 1.52174ZM11.132 10.6522L13.3521 21.6014C13.4226 21.9517 13.6157 22.2663 13.8975 22.4903C14.1794 22.7142 14.532 22.8332 14.8938 22.8264L14.9233 22.8261H29.9083L29.9379 22.8264C30.2996 22.8332 30.6523 22.7142 30.9341 22.4903C31.2147 22.2674 31.4072 21.9546 31.4785 21.6063L33.5949 10.6522H11.132Z" fill="black"/>
</svg>
