<svg width="62" height="61" viewBox="0 0 62 61" fill="none" xmlns="http://www.w3.org/2000/svg">
<path d="M31 61C47.8447 61 61.5 47.3447 61.5 30.5C61.5 13.6553 47.8447 0 31 0C14.1553 0 0.5 13.6553 0.5 30.5C0.5 47.3447 14.1553 61 31 61Z" fill="#5181B8"/>
<path d="M45.1816 23.0275C45.4866 22.265 45.1816 21.8075 44.2666 21.8075H41.0641C40.3016 21.8075 39.8441 22.265 39.6916 22.7225C39.6916 22.7225 38.0141 26.6875 35.7266 29.28C34.9641 30.0425 34.6591 30.195 34.2016 30.195C33.8966 30.195 33.7441 29.89 33.7441 29.28V22.875C33.7441 22.1125 33.4391 21.655 32.8291 21.655H27.7966C27.3391 21.655 27.0341 21.96 27.0341 22.4175C27.0341 23.18 28.2541 23.3325 28.2541 25.62V30.5C28.2541 31.5675 27.9491 31.72 27.6441 31.72C26.5766 31.72 23.8316 27.755 22.3066 23.18C22.0016 22.265 21.6966 21.96 20.9341 21.96H17.7316C16.8166 21.96 16.6641 22.4175 16.6641 22.875C16.6641 23.6375 17.7316 27.9075 21.6966 33.55C24.4416 37.3625 28.1016 39.4975 31.4566 39.4975C33.4391 39.4975 33.7441 39.04 33.7441 38.2775V35.075C33.7441 34.16 34.0491 34.0075 34.5066 34.0075C34.9641 34.0075 35.7266 34.3125 37.7091 36.1425C39.9966 38.43 40.3016 39.345 41.5216 39.345H44.7241C45.6391 39.345 46.0966 38.8875 45.7916 37.9725C45.4866 37.0575 44.5716 35.685 43.0466 34.16C42.2841 33.245 41.2166 32.33 40.7591 31.8725C40.3016 31.2625 40.4541 30.9575 40.7591 30.5C40.7591 30.5 44.8766 24.8575 45.1816 23.0275Z" fill="white"/>
</svg>
