<svg width="33" height="37" viewBox="0 0 33 37" fill="none" xmlns="http://www.w3.org/2000/svg">
<path fill-rule="evenodd" clip-rule="evenodd" d="M0 8.40909C0 7.48025 0.73873 6.72727 1.65 6.72727H31.35C32.2613 6.72727 33 7.48025 33 8.40909C33 9.33793 32.2613 10.0909 31.35 10.0909H1.65C0.73873 10.0909 0 9.33793 0 8.40909Z" fill="#F15941"/>
<path fill-rule="evenodd" clip-rule="evenodd" d="M13.2 3.36364C12.7624 3.36364 12.3427 3.54083 12.0333 3.85623C11.7238 4.17163 11.55 4.59941 11.55 5.04545V6.72727H21.45V5.04545C21.45 4.59941 21.2762 4.17163 20.9667 3.85623C20.6573 3.54083 20.2376 3.36364 19.8 3.36364H13.2ZM24.75 6.72727V5.04545C24.75 3.70732 24.2285 2.42399 23.3002 1.47778C22.3719 0.531573 21.1128 0 19.8 0H13.2C11.8872 0 10.6281 0.531573 9.69982 1.47778C8.77152 2.42399 8.25 3.70732 8.25 5.04545V6.72727H4.95C4.03873 6.72727 3.3 7.48025 3.3 8.40909V31.9545C3.3 33.2927 3.82152 34.576 4.74982 35.5222C5.67813 36.4684 6.93718 37 8.25 37H24.75C26.0628 37 27.3219 36.4684 28.2502 35.5222C29.1785 34.576 29.7 33.2927 29.7 31.9545V8.40909C29.7 7.48025 28.9613 6.72727 28.05 6.72727H24.75ZM6.6 10.0909V31.9545C6.6 32.4006 6.77384 32.8284 7.08327 33.1438C7.39271 33.4592 7.81239 33.6364 8.25 33.6364H24.75C25.1876 33.6364 25.6073 33.4592 25.9167 33.1438C26.2262 32.8284 26.4 32.4006 26.4 31.9545V10.0909H6.6Z" fill="#F15941"/>
<path fill-rule="evenodd" clip-rule="evenodd" d="M13.2 15.1364C14.1113 15.1364 14.85 15.8893 14.85 16.8182V26.9091C14.85 27.8379 14.1113 28.5909 13.2 28.5909C12.2887 28.5909 11.55 27.8379 11.55 26.9091V16.8182C11.55 15.8893 12.2887 15.1364 13.2 15.1364Z" fill="#F15941"/>
<path fill-rule="evenodd" clip-rule="evenodd" d="M19.8 15.1364C20.7113 15.1364 21.45 15.8893 21.45 16.8182V26.9091C21.45 27.8379 20.7113 28.5909 19.8 28.5909C18.8887 28.5909 18.15 27.8379 18.15 26.9091V16.8182C18.15 15.8893 18.8887 15.1364 19.8 15.1364Z" fill="#F15941"/>
</svg>
