<svg width="21" height="16" viewBox="0 0 21 16" fill="none" xmlns="http://www.w3.org/2000/svg">
<path fill-rule="evenodd" clip-rule="evenodd" d="M21 8.00005C21 8.41901 20.7388 8.79356 20.3457 8.93839L1.3457 15.9384C0.951318 16.0837 0.508165 15.9669 0.236654 15.646C-0.0348575 15.3252 -0.0767714 14.8688 0.131757 14.5039L3.84825 8.00005L0.131758 1.49619C-0.0767708 1.13126 -0.0348568 0.674893 0.236654 0.354058C0.508165 0.0332227 0.951319 -0.083595 1.34571 0.0617056L20.3457 7.06171C20.7388 7.20654 21 7.58109 21 8.00005ZM3.23025 2.88743L5.86824 7.50391C6.04392 7.81134 6.04392 8.18875 5.86824 8.49619L3.23025 13.1127L17.1074 8.00005L3.23025 2.88743Z" fill="#55A43D"/>
</svg>
