<svg width="16" height="14" viewBox="0 0 16 14" fill="none" xmlns="http://www.w3.org/2000/svg">
<path fill-rule="evenodd" clip-rule="evenodd" d="M15.3333 0.666667C15.7015 0.666667 16 0.965143 16 1.33333V5.33333C16 5.70152 15.7015 6 15.3333 6H11.3333C10.9651 6 10.6667 5.70152 10.6667 5.33333C10.6667 4.96514 10.9651 4.66667 11.3333 4.66667H14.6667V1.33333C14.6667 0.965143 14.9651 0.666667 15.3333 0.666667Z" fill="white"/>
<path fill-rule="evenodd" clip-rule="evenodd" d="M2.01251e-06 8C2.01251e-06 7.63181 0.298479 7.33333 0.666668 7.33333H4.66667C5.03486 7.33333 5.33333 7.63181 5.33333 8C5.33333 8.36819 5.03486 8.66666 4.66667 8.66666H1.33333V12C1.33333 12.3682 1.03486 12.6667 0.666668 12.6667C0.298479 12.6667 2.01251e-06 12.3682 2.01251e-06 12V8Z" fill="white"/>
<path fill-rule="evenodd" clip-rule="evenodd" d="M9.47822 1.54335C8.61278 1.29302 7.69802 1.26601 6.81931 1.46482C5.94061 1.66364 5.12658 2.08182 4.4532 2.68033C3.77982 3.27884 3.26902 4.03817 2.96848 4.88749C2.84565 5.23458 2.4647 5.41639 2.1176 5.29356C1.77051 5.17074 1.5887 4.78979 1.71152 4.44269C2.0872 3.38105 2.7257 2.43188 3.56742 1.68374C4.40915 0.935606 5.42668 0.412888 6.52507 0.164365C7.62345 -0.084159 8.7669 -0.0503886 9.8487 0.262524C10.9271 0.574443 11.9092 1.1536 12.7039 1.94622L15.7898 4.84592C16.0582 5.09805 16.0713 5.51995 15.8192 5.78827C15.567 6.05659 15.1451 6.06972 14.8768 5.81759L11.7835 2.91092C11.7784 2.90615 11.7734 2.9013 11.7685 2.89637C11.1316 2.25917 10.3437 1.79368 9.47822 1.54335ZM0.180833 7.5419C0.432961 7.27358 0.854867 7.26046 1.12319 7.51258L4.21652 10.4193C4.2216 10.424 4.2266 10.4289 4.23152 10.4338C4.86841 11.071 5.65634 11.5365 6.52178 11.7868C7.38722 12.0372 8.30198 12.0642 9.18069 11.8653C10.0594 11.6665 10.8734 11.2484 11.5468 10.6498C12.2202 10.0513 12.731 9.292 13.0315 8.44269C13.1543 8.09559 13.5353 7.91378 13.8824 8.03661C14.2295 8.15944 14.4113 8.54039 14.2885 8.88748C13.9128 9.94912 13.2743 10.8983 12.4326 11.6464C11.5908 12.3946 10.5733 12.9173 9.47493 13.1658C8.37654 13.4143 7.2331 13.3806 6.1513 13.0677C5.07293 12.7557 4.09085 12.1766 3.29607 11.384L0.210151 8.48425C-0.0581685 8.23213 -0.0712944 7.81022 0.180833 7.5419Z" fill="white"/>
</svg>
