<svg width="22" height="11" viewBox="0 0 22 11" fill="none" xmlns="http://www.w3.org/2000/svg">
<path d="M5.14645 0.646447C5.34171 0.451184 5.65829 0.451184 5.85355 0.646447C6.04882 0.841709 6.04882 1.15829 5.85355 1.35355L5.14645 0.646447ZM1 5.5L0.646446 5.85355C0.451185 5.65829 0.451185 5.34171 0.646446 5.14645L1 5.5ZM5.85355 9.64645C6.04882 9.84171 6.04882 10.1583 5.85355 10.3536C5.65829 10.5488 5.34171 10.5488 5.14645 10.3536L5.85355 9.64645ZM21 5C21.2761 5 21.5 5.22386 21.5 5.5C21.5 5.77614 21.2761 6 21 6V5ZM5.85355 1.35355L1.35355 5.85355L0.646446 5.14645L5.14645 0.646447L5.85355 1.35355ZM1.35355 5.14645L5.85355 9.64645L5.14645 10.3536L0.646446 5.85355L1.35355 5.14645ZM21 6H1V5H21V6Z" fill="black"/>
</svg>
