<svg width="242" height="82" viewBox="0 0 242 82" fill="none" xmlns="http://www.w3.org/2000/svg">
<path fill-rule="evenodd" clip-rule="evenodd" d="M20.4966 40.5022C30.1681 40.705 36.1851 32.435 34.7824 21.8969C35.5668 31.7896 29.799 39.5802 20.6812 38.7228C5.06647 37.2477 1.98413 54.6636 8.36105 66.4464C8.48986 66.6583 8.66334 66.8395 8.86941 66.9776C9.07549 67.1156 9.30919 67.2072 9.55428 67.2458C9.79936 67.2844 10.0499 67.2692 10.2885 67.2012C10.5271 67.1332 10.748 67.0141 10.9358 66.8521C11.5172 66.3542 16.4729 68.696 16.7867 67.9861C13.2907 65.906 10.6678 62.6305 9.40388 58.7664C6.63532 51.2155 7.70583 40.1887 20.4781 40.4469L20.4966 40.5022Z" fill="#55A43D"/>
<path fill-rule="evenodd" clip-rule="evenodd" d="M34.6532 21.7124C34.5517 6.46303 25.7199 10.492 19.0846 3.90918C17.3497 20.2834 27.8887 21.7216 32.586 21.6386C30.7403 17.2593 26.043 13.765 26.3936 13.7742C29.3837 13.8296 32.023 18.1352 33.3889 20.3571C33.7389 20.8704 34.1653 21.3274 34.6532 21.7124Z" fill="#55A43D"/>
<path fill-rule="evenodd" clip-rule="evenodd" d="M15.0979 42.9361C29.2914 39.912 27.3534 48.9289 34.8193 53.7324C19.9613 58.6926 16.473 49.2055 15.587 44.8354C20.0352 45.6467 24.2434 49.2885 24.1603 48.9658C23.4959 46.1999 18.9554 44.6418 16.6114 43.8212C16.0626 43.5931 15.5522 43.2822 15.0979 42.8993V42.9361Z" fill="#55A43D"/>
<path d="M55.1405 33.5874H65.0612V31.9739C62.5418 31.9739 62.0711 30.3605 62.0711 27.6591V20.9748H62.2096C64.2155 22.5738 66.7226 23.4131 69.2879 23.3443C77.9258 23.3443 81.8664 17.1763 81.8664 11.7182C81.8664 2.49853 73.9852 0 70.1369 0C67.1468 0 57.9829 0.921957 57.9829 10.2431V27.7605C57.9829 30.0378 57.4107 31.8356 55.1313 31.937V33.5505L55.1405 33.5874ZM62.0711 8.26084C62.0711 4.57296 65.015 1.85314 69.2879 1.85314C76.8368 1.85314 77.1229 8.20552 77.1229 11.7182C77.1229 15.8487 76.5507 21.4911 69.1956 21.4911C67.7885 21.5556 66.3892 21.2487 65.1385 20.6013C63.8878 19.9539 62.8299 18.9889 62.0711 17.8032V8.25161V8.26084ZM100.203 29.9363L99.3452 29.1342C98.0624 30.4619 95.8753 32.0292 93.4574 32.0292C88.9446 32.0292 88.3263 27.7144 88.3263 25.013C88.3263 24.3492 88.3263 23.6854 88.3725 23.0216H99.7236V22.6897C99.7236 19.1309 97.5826 14.9543 92.7007 14.9543C87.8188 14.9543 84.3396 19.0294 84.3396 25.096C84.3396 32.398 89.7568 33.9654 92.8391 33.9654C95.9214 33.9654 98.5331 32.02 100.222 29.9363H100.203ZM95.9768 21.5372H88.474C88.5663 17.7387 90.5135 16.4111 92.4607 16.4111C94.3064 16.4111 95.9768 17.6926 95.9768 21.1039V21.528V21.5372ZM104.199 15.3231V16.6969C104.501 16.715 104.797 16.7943 105.067 16.9299C105.337 17.0655 105.577 17.2546 105.772 17.4856C105.967 17.7167 106.113 17.9849 106.202 18.2741C106.29 18.5632 106.318 18.8673 106.285 19.1677V28.7931C106.285 30.637 106.091 31.9739 104.144 32.2044V33.5781H111.887V32.2044C109.94 32.0661 109.746 30.4987 109.746 28.7931V23.6209C109.746 19.933 111.361 17.4529 112.736 17.4529C112.943 17.4554 113.145 17.5143 113.32 17.6232C113.496 17.732 113.638 17.8867 113.732 18.0706C113.917 18.2924 114.15 18.4681 114.415 18.5833C114.679 18.6986 114.967 18.7504 115.255 18.7344C115.477 18.7345 115.697 18.6901 115.902 18.6038C116.106 18.5176 116.292 18.3912 116.446 18.2322C116.601 18.0732 116.723 17.8847 116.803 17.678C116.884 17.4713 116.923 17.2505 116.916 17.0288C116.926 16.7315 116.871 16.4357 116.754 16.1622C116.637 15.8887 116.461 15.644 116.24 15.4455C116.018 15.2469 115.756 15.0992 115.471 15.0128C115.186 14.9263 114.886 14.9032 114.591 14.9451C112.505 14.9451 111.176 16.365 109.977 18.2642H109.783V15.3231H104.199ZM119.685 15.3231V16.7983H121.964V28.7839C121.964 30.7292 121.771 31.9186 119.639 32.2505V33.6242H127.852V32.2505C125.859 32.4441 125.434 30.6831 125.434 28.7839V16.7983H130.519V15.3231H125.434V5.78997C125.434 4.17652 125.767 2.71057 127.142 2.71057C127.347 2.70406 127.55 2.74285 127.739 2.82412C127.927 2.9054 128.095 3.02718 128.231 3.18078C128.411 3.4283 128.646 3.62994 128.919 3.76931C129.192 3.90867 129.493 3.98184 129.799 3.98289C130.009 3.98744 130.216 3.94808 130.409 3.86736C130.602 3.78664 130.776 3.66635 130.92 3.51428C131.063 3.3622 131.173 3.18173 131.243 2.98453C131.312 2.78732 131.339 2.57777 131.322 2.36944C131.322 1.32762 130.325 0.377983 128.71 0.377983C125.942 0.377983 121.964 3.55878 121.964 10.5197V15.3139L119.685 15.3231ZM148.939 29.9363L148.081 29.1342C146.798 30.4619 144.611 32.0292 142.193 32.0292C137.681 32.0292 137.062 27.7144 137.062 25.013C137.062 24.3492 137.062 23.6854 137.108 23.0216H148.459V22.6897C148.459 19.1309 146.318 14.9543 141.437 14.9543C136.555 14.9543 133.076 19.0294 133.076 25.096C133.076 32.398 138.493 33.9654 141.575 33.9654C144.657 33.9654 147.269 32.02 148.958 29.9363H148.939ZM144.713 21.5372H137.228C137.321 17.7387 139.268 16.4111 141.215 16.4111C143.061 16.4111 144.731 17.6926 144.731 21.1039V21.528L144.713 21.5372ZM168.513 29.3647C166.955 30.8417 164.91 31.7005 162.764 31.7803C161.103 31.7803 156.876 30.9782 156.876 24.8102C156.876 18.5039 159.534 16.4111 162.053 16.4111C164.093 16.4111 164.194 17.499 164.24 18.1628V18.255C164.226 18.5056 164.266 18.7564 164.357 18.9902C164.449 19.2241 164.589 19.4356 164.77 19.6105C164.95 19.7853 165.166 19.9194 165.402 20.0037C165.639 20.088 165.891 20.1205 166.141 20.0989C166.367 20.1101 166.592 20.0756 166.804 19.9973C167.016 19.9191 167.209 19.7988 167.373 19.6437C167.537 19.4886 167.668 19.3019 167.757 19.0949C167.847 18.8879 167.894 18.6649 167.895 18.4394C167.895 16.7799 165.948 14.9267 161.961 14.9267C156.691 14.9267 152.889 19.1954 152.889 24.7918C152.889 30.8122 157.208 33.9469 161.721 33.9469C163.183 33.9115 164.62 33.5583 165.932 32.9119C167.243 32.2655 168.398 31.3413 169.316 30.2037L168.513 29.3463V29.3647ZM172.703 15.3231V16.7983H174.789V29.1342C174.789 32.9327 176.496 33.9746 178.969 33.9746C179.921 33.9582 180.858 33.7383 181.718 33.3295C182.577 32.9208 183.339 32.3328 183.952 31.6051L183.15 30.6832C182.411 31.2915 181.494 31.6413 180.538 31.6789C178.498 31.6789 178.258 30.1576 178.258 29.0236V16.7891H182.199V15.3139H178.258V9.3211L174.807 11.165V15.2955L172.703 15.3231Z" fill="black"/>
<path d="M236.795 38.6029C237.999 38.6059 239.164 39.0255 240.093 39.7905C241.022 40.5555 241.657 41.6184 241.889 42.7983C242.122 43.9783 241.938 45.2023 241.368 46.2619C240.799 47.3215 239.88 48.1512 238.767 48.6098C237.654 49.0684 236.417 49.1275 235.265 48.777C234.114 48.4265 233.12 47.6881 232.452 46.6875C231.784 45.687 231.484 44.4861 231.603 43.2894C231.722 42.0927 232.252 40.9741 233.104 40.1242C233.588 39.6399 234.164 39.2562 234.797 38.9951C235.431 38.734 236.11 38.6007 236.795 38.6029ZM239.831 40.7695C239.13 40.0678 238.206 39.6308 237.218 39.533C236.23 39.4351 235.239 39.6826 234.413 40.233C233.588 40.7835 232.978 41.603 232.689 42.5519C232.401 43.5008 232.45 44.5204 232.829 45.437C233.209 46.3536 233.894 47.1105 234.769 47.5787C235.645 48.0468 236.655 48.1974 237.629 48.0047C238.603 47.8119 239.48 47.2878 240.11 46.5217C240.741 45.7555 241.086 44.7946 241.086 43.8028C241.088 43.2395 240.978 42.6814 240.762 42.1608C240.547 41.6402 240.23 41.1674 239.831 40.7695Z" fill="black"/>
<path d="M22.9883 25.4648C7.96423 25.4648 0 37.8192 0 48.6247C0 59.4302 7.96423 71.7846 22.9883 71.7846C38.0124 71.7846 45.9766 59.4302 45.9766 48.6247C45.9766 37.8192 38.0124 25.4648 22.9883 25.4648ZM22.9883 27.991C31.9215 27.991 39.4981 35.3668 39.4981 48.6247C39.4981 61.8826 31.9215 69.2492 22.9883 69.2492C14.0551 69.2492 6.45998 61.8734 6.45998 48.6247C6.45998 35.376 14.0366 27.991 22.9698 27.991H22.9883ZM52.8611 46.3659V48.2098C54.7068 48.5971 55.7127 49.5006 55.7127 51.575V64.7315C55.7127 67.1932 55.4543 69.0648 52.7965 69.3875V71.2314H63.3539V69.3875C60.6961 69.1939 60.4377 67.0549 60.4377 64.7315V57.6785C60.4377 52.6998 62.6433 49.2701 64.5167 49.2701C64.7977 49.274 65.0724 49.3541 65.3113 49.5019C65.5503 49.6497 65.7445 49.8595 65.8733 50.1091C66.1244 50.4128 66.4426 50.6542 66.8029 50.8142C67.1632 50.9742 67.5558 51.0484 67.9497 51.031C68.2534 51.0312 68.554 50.9704 68.8337 50.8524C69.1134 50.7344 69.3666 50.5616 69.5783 50.3441C69.79 50.1266 69.9558 49.8689 70.066 49.5863C70.1763 49.3036 70.2286 49.0017 70.22 48.6985C70.22 47.2786 69.3802 45.8496 67.0453 45.8496C64.1937 45.8496 62.3849 47.7857 60.6961 50.3765H60.4377V46.3659H52.8611ZM75.4802 71.7846C79.0812 70.4074 82.8933 69.6619 86.7483 69.5811C91.6025 69.5811 95.4877 70.6782 95.4877 74.5597C95.4877 75.786 94.9709 79.9901 86.6191 79.9901C82.3462 79.9901 80.9897 78.6348 80.9897 77.7866C80.9897 77.2058 81.5711 76.6895 81.9125 76.1086C82.1293 75.7582 82.2421 75.3534 82.2377 74.9414C82.2333 74.5294 82.1119 74.1271 81.8876 73.7814C81.6633 73.4356 81.3454 73.1606 80.9708 72.9883C80.5962 72.816 80.1803 72.7534 79.7715 72.808C79.3824 72.7951 78.995 72.8644 78.6346 73.0113C78.2741 73.1582 77.9487 73.3794 77.6796 73.6604C77.4105 73.9414 77.2038 74.276 77.0729 74.6422C76.9419 75.0085 76.8898 75.3982 76.9199 75.7859C76.9199 79.6029 81.7095 82 87.4773 82C94.1496 82 98.81 78.5703 98.81 73.7853C98.81 67.7648 92.5253 65.0542 87.4773 65.0542C85.5905 65.0665 83.719 65.3937 81.9402 66.0223C80.9066 66.4095 80.4544 66.6677 78.8302 67.184L78.6364 66.9258L81.6172 62.2053C82.9927 62.675 84.4364 62.9148 85.89 62.9153C90.615 62.9153 95.9307 60.3245 95.9307 54.3778C95.9307 51.8516 95.1555 50.8835 95.0078 50.1091C94.922 49.858 94.922 49.5857 95.0078 49.3346C95.0314 48.9358 95.1922 48.5574 95.4629 48.2634C95.7337 47.9694 96.0978 47.7779 96.4936 47.7212C97.0104 47.7212 97.075 48.0439 97.075 48.2375C97.075 48.4311 96.8166 48.7538 96.6874 49.0765C96.6135 49.2843 96.57 49.5017 96.5582 49.7219C96.5511 49.9243 96.5869 50.1259 96.6631 50.3135C96.7394 50.5012 96.8545 50.6706 97.0009 50.8107C97.1472 50.9508 97.3216 51.0585 97.5125 51.1267C97.7034 51.1948 97.9065 51.2219 98.1086 51.2062C98.3921 51.215 98.6741 51.1624 98.9353 51.052C99.1965 50.9417 99.4307 50.7761 99.6218 50.5668C99.813 50.3575 99.9565 50.1093 100.043 49.8393C100.129 49.5693 100.155 49.2839 100.12 49.0027C100.139 48.5871 100.069 48.1723 99.9139 47.786C99.7591 47.3997 99.5236 47.0509 99.2231 46.7629C98.9226 46.4749 98.564 46.2543 98.1712 46.1159C97.7785 45.9774 97.3607 45.9244 96.9458 45.9602C96.1722 45.987 95.4292 46.2681 94.8318 46.7599C94.2345 47.2517 93.8162 47.9266 93.642 48.68C91.501 46.6794 88.1049 45.8312 85.484 45.8312C79.9468 45.8312 75.5171 49.1318 75.5171 54.5622C75.4859 55.9475 75.8459 57.3136 76.5559 58.5039C77.2659 59.6943 78.2972 60.6607 79.5315 61.2926L74.4836 69.5903L75.4525 71.7938L75.4802 71.7846ZM85.7793 47.8134C89.5353 47.8134 90.5043 50.5332 90.5043 54.2672C90.5043 60.2876 87.8465 60.8685 85.7793 60.8685C83.7121 60.8685 80.9897 60.2231 80.9897 54.3317C80.9897 50.4502 81.9125 47.795 85.7793 47.795V47.8134ZM128.535 68.7052C128.178 68.9011 127.78 69.0115 127.372 69.0279C124.714 69.0279 124.714 65.9854 124.714 65.0173V56.8671C124.714 52.4693 124.456 45.8035 115.781 45.8035C110.346 45.8035 107.476 48.7169 107.476 50.7176C107.474 50.9843 107.527 51.2486 107.632 51.4936C107.738 51.7387 107.893 51.9591 108.088 52.1411C108.283 52.3231 108.514 52.4627 108.766 52.5509C109.018 52.6391 109.286 52.6742 109.552 52.6537C111.628 52.6537 111.564 51.1048 112.016 49.9339C112.236 49.2782 112.666 48.7132 113.24 48.3265C113.814 47.9398 114.5 47.753 115.191 47.795C119.399 47.795 119.98 51.1601 119.98 55.7515C111.822 56.2678 105.279 58.2132 105.279 64.8698C105.279 68.6868 107.872 71.7293 112.856 71.7293C114.308 71.7053 115.739 71.376 117.056 70.7628C118.372 70.1496 119.545 69.2664 120.497 68.1705H120.626C120.828 69.1485 121.352 70.0308 122.115 70.676C122.878 71.3212 123.836 71.6921 124.834 71.7293C125.67 71.7393 126.492 71.5289 127.22 71.1193C127.948 70.7097 128.554 70.1155 128.978 69.3967L128.526 68.6868L128.535 68.7052ZM119.971 60.1954C119.971 64.3351 119.583 69.0556 114.858 69.0556C112.459 69.0556 110.327 67.6357 110.327 64.7868C110.327 62.1316 112.071 58.3331 119.971 57.9274V60.1954ZM133.722 69.4151V71.2591H144.279V69.4151C141.944 69.157 141.363 67.5712 141.363 64.7592V52.8934C143.956 48.9474 147.251 48.5602 148.164 48.5602C151.92 48.5602 151.985 51.8608 151.985 53.797V64.7315C151.985 67.2577 151.662 69.0648 149.069 69.3875V71.2314H159.654V69.3875C157.061 69.1939 156.738 67.1194 156.738 64.7315V53.9906C156.738 50.9481 156.802 45.9694 150.065 45.8404H149.807C148.258 45.8701 146.732 46.2122 145.319 46.8459C143.906 47.4796 142.636 48.392 141.584 49.5282H141.39V46.3567H133.814V48.2006C136.278 48.7815 136.665 50.2105 136.665 51.5658V64.7315C136.665 67.2577 136.342 69.0648 133.749 69.3875L133.722 69.4151ZM165.597 46.3659V48.2098C168.319 48.7907 168.449 50.2843 168.449 52.9303V64.7315C168.449 67.4974 167.996 69.1293 165.597 69.3875V71.2314H176.09V69.3875C173.497 69.1939 173.174 67.1194 173.174 64.7315V46.3567L165.597 46.3659ZM203.369 65.5152C201.246 67.5306 198.461 68.704 195.534 68.8159C193.264 68.8159 187.505 67.7187 187.505 59.3103C187.505 50.7084 191.132 47.8595 194.565 47.8595C197.334 47.8595 197.482 49.3438 197.546 50.2566V50.3857C197.525 50.7285 197.578 51.0719 197.702 51.3923C197.825 51.7128 198.017 52.0029 198.263 52.2427C198.509 52.4825 198.804 52.6664 199.128 52.7819C199.452 52.8974 199.797 52.9417 200.139 52.9119C200.448 52.9281 200.756 52.8816 201.046 52.775C201.336 52.6684 201.602 52.5041 201.826 52.2919C202.05 52.0798 202.229 51.8244 202.352 51.541C202.474 51.2577 202.538 50.9525 202.539 50.6438C202.539 48.3758 199.881 45.8588 194.445 45.8588C187.256 45.8588 182.079 51.6764 182.079 59.3103C182.079 67.5251 187.967 71.7938 194.076 71.7938C196.071 71.7466 198.032 71.2651 199.822 70.383C201.612 69.5008 203.188 68.2392 204.44 66.6861L203.342 65.5244L203.369 65.5152ZM219.122 45.8496C214.397 45.8496 210.9 48.763 210.9 53.4189C210.856 54.4945 211.097 55.5627 211.597 56.5159C212.098 57.4692 212.841 58.274 213.751 58.8494C215.597 60.2047 217.443 60.5273 220.165 61.4401C221.651 61.9564 224.244 62.8599 224.244 65.5152C224.244 67.6542 222.629 69.7839 219.002 69.7839C215.892 69.7839 214.859 68.1705 214.859 67.2577C214.859 66.6123 215.117 66.0315 215.117 65.4138C215.117 64.4918 214.471 63.3394 212.653 63.3394C212.3 63.3321 211.948 63.3985 211.622 63.5344C211.295 63.6702 211.001 63.8725 210.757 64.1284C210.513 64.3842 210.325 64.6881 210.205 65.0205C210.085 65.3529 210.036 65.7067 210.06 66.0592C210.06 68.3918 212.589 71.8123 219.058 71.8123C224.595 71.8123 228.766 68.5762 228.766 63.9847C228.766 58.4529 222.943 57.0607 219.833 56.2217C216.465 55.2998 214.397 54.6083 214.397 51.7594C214.397 49.1687 216.603 47.8779 219.252 47.8779C222.168 47.8779 222.491 49.6205 222.491 49.9524C222.62 50.5977 223.008 52.6722 225.084 52.6722C225.347 52.695 225.612 52.6611 225.861 52.5727C226.11 52.4844 226.337 52.3437 226.527 52.1602C226.717 51.9766 226.865 51.7545 226.962 51.5088C227.058 51.2631 227.101 50.9996 227.087 50.736C227.087 48.4035 224.429 45.8865 219.122 45.8865V45.8496Z" fill="black"/>
<path d="M238.585 43.1482C238.589 42.9354 238.546 42.7244 238.46 42.5297C238.374 42.3349 238.247 42.1611 238.087 42.0201C237.928 41.879 237.74 41.7742 237.536 41.7127C237.332 41.6512 237.117 41.6345 236.906 41.6638H235.374V45.8127H236.297V44.6602H237.072L237.921 45.8219H239.01L237.976 44.4113C238.186 44.2784 238.358 44.0925 238.473 43.8723C238.588 43.6522 238.643 43.4056 238.632 43.1574L238.585 43.1482ZM236.906 43.7751H236.251V42.512H236.906C237.709 42.512 237.709 42.9638 237.709 43.1205C237.709 43.2773 237.709 43.7475 236.906 43.7475V43.7751Z" fill="black"/>
</svg>
